<svg width="24" height="24" viewBox="0 0 24 24" fill="none" xmlns="http://www.w3.org/2000/svg">
<path fill-rule="evenodd" clip-rule="evenodd" d="M15.6872 13.2935C15.9412 12.7486 16.083 12.1409 16.083 11.5C16.083 9.15279 14.1802 7.25 11.833 7.25C11.1922 7.25 10.5844 7.39184 10.0395 7.64585L11.2137 8.82002C11.4127 8.77421 11.62 8.75 11.833 8.75C13.3518 8.75 14.583 9.98122 14.583 11.5C14.583 11.713 14.5588 11.9203 14.513 12.1193L15.6872 13.2935ZM9.85837 9.58602C9.37843 10.0811 9.08301 10.756 9.08301 11.5C9.08301 13.0188 10.3142 14.25 11.833 14.25C12.577 14.25 13.2519 13.9546 13.747 13.4746L14.8077 14.5354C14.0412 15.2867 12.9912 15.75 11.833 15.75C9.4858 15.75 7.58301 13.8472 7.58301 11.5C7.58301 10.3418 8.04628 9.29185 8.79763 8.52528L9.85837 9.58602Z" fill="#ABB3BA"/>
<path fill-rule="evenodd" clip-rule="evenodd" d="M18.3197 15.9245C19.5888 14.895 20.6881 13.5268 21.5082 11.8258L21.6652 11.5001L21.5082 11.1743C19.4583 6.92266 15.6648 4.75 11.8326 4.75C10.5023 4.75 9.17655 5.01184 7.92684 5.53161L9.09166 6.69643C9.98524 6.39809 10.9105 6.25 11.8326 6.25C14.9766 6.25 18.157 7.97148 19.9938 11.5001C19.2635 12.903 18.3208 14.0202 17.2524 14.8572L18.3197 15.9245ZM3.67142 11.5001C4.40223 10.0961 5.34574 8.97829 6.41502 8.14111L5.34773 7.07381C4.07767 8.10348 2.97765 9.47233 2.15704 11.1743L2 11.5001L2.15705 11.8258C4.20695 16.0774 8.00043 18.25 11.8326 18.25C13.164 18.25 14.4906 17.9878 15.7412 17.4673L14.5765 16.3026C13.682 16.6016 12.7558 16.75 11.8326 16.75C8.68865 16.75 5.50821 15.0286 3.67142 11.5001Z" fill="#ABB3BA"/>
<path d="M3.33301 4L19.333 20" stroke="#ABB3BA" stroke-width="1.5"/>
</svg>