<svg width="24" height="24" viewBox="0 0 24 24" fill="none" xmlns="http://www.w3.org/2000/svg">
<path fill-rule="evenodd" clip-rule="evenodd" d="M11.834 8.75C10.3152 8.75 9.08398 9.98122 9.08398 11.5C9.08398 13.0188 10.3152 14.25 11.834 14.25C13.3528 14.25 14.584 13.0188 14.584 11.5C14.584 9.98122 13.3528 8.75 11.834 8.75ZM7.58398 11.5C7.58398 9.15279 9.48677 7.25 11.834 7.25C14.1812 7.25 16.084 9.15279 16.084 11.5C16.084 13.8472 14.1812 15.75 11.834 15.75C9.48677 15.75 7.58398 13.8472 7.58398 11.5Z" fill="#ABB3BA"/>
<path fill-rule="evenodd" clip-rule="evenodd" d="M19.9938 11.5001C18.157 7.97148 14.9766 6.25 11.8326 6.25C8.68866 6.25 5.50822 7.97148 3.67142 11.5001C5.50821 15.0286 8.68865 16.75 11.8326 16.75C14.9766 16.75 18.157 15.0286 19.9938 11.5001ZM11.8326 18.25C8.00043 18.25 4.20695 16.0774 2.15705 11.8258L2 11.5001L2.15704 11.1743C4.20694 6.92266 8.00042 4.75 11.8326 4.75C15.6648 4.75 19.4583 6.92266 21.5082 11.1743L21.6652 11.5001L21.5082 11.8258C19.4583 16.0774 15.6648 18.25 11.8326 18.25Z" fill="#ABB3BA"/>
</svg>
